<?xml version="1.0" standalone="no"?>
<!DOCTYPE svg PUBLIC "-//W3C//DTD SVG 20010904//EN"
 "http://www.w3.org/TR/2001/REC-SVG-20010904/DTD/svg10.dtd">
<svg version="1.0" xmlns="http://www.w3.org/2000/svg"
 width="214.000000pt" height="214.000000pt" viewBox="0 0 214.000000 214.000000"
 preserveAspectRatio="xMidYMid meet">
<metadata>
Created by potrace 1.11, written by Peter Selinger 2001-2013
</metadata>
<g transform="translate(0.000000,214.000000) scale(0.100000,-0.100000)"
fill="#000000" stroke="none">
<path d="M1469 1907 c-15 -20 -25 -22 -130 -22 l-114 0 0 -141 0 -140 -172
-215 -172 -214 22 -19 c12 -10 90 -62 172 -115 150 -97 150 -97 150 -134 0
-31 -15 -57 -89 -157 -52 -70 -93 -117 -100 -113 -6 3 -77 53 -158 111 l-148
105 0 517 0 516 -102 0 c-57 -1 -105 -4 -108 -8 -3 -3 -5 -254 -5 -556 l0
-549 265 -214 c146 -117 271 -219 279 -227 8 -8 48 -39 88 -70 63 -47 76 -53
87 -41 7 8 75 95 151 194 187 243 199 259 205 265 35 35 130 174 124 180 -5 4
-67 46 -139 92 l-130 84 0 265 1 264 98 123 c56 69 95 127 90 131 -28 25 -139
111 -143 111 -4 -1 -13 -11 -22 -23z m-244 -671 c0 -24 -3 -47 -7 -51 -7 -8
-48 16 -48 28 0 10 42 66 50 66 3 1 5 -19 5 -43z"/>
</g>
</svg>
